<svg  viewBox="0 0 40 40"  xmlns="http://www.w3.org/2000/svg">
<path d="M28.3334 10.0001C28.3334 9.93461 28.3327 9.86933 28.3312 9.80422C28.2271 5.29232 24.537 1.66675 20.0001 1.66675C15.4978 1.66675 11.8295 5.23716 11.672 9.70102C11.6685 9.80027 11.6667 9.89997 11.6667 10.0001M28.3334 10.0001H11.6667M28.3334 10.0001H30.5146C33.9908 10.0001 35.7289 10.0001 36.7226 11.1103C37.7163 12.2206 37.5244 13.9481 37.1405 17.403L36.6474 21.8406C35.8638 28.8928 35.4721 32.4189 33.0991 34.5428C30.7261 36.6667 27.1507 36.6667 20.0001 36.6667C12.8494 36.6667 9.27408 36.6667 6.90109 34.5428C4.52809 32.4189 4.1363 28.8928 3.35273 21.8406L2.85966 17.403C2.47578 13.9481 2.28384 12.2206 3.27757 11.1103C4.2713 10.0001 6.00938 10.0001 9.48555 10.0001H11.6667M10.0001 16.6667L11.0001 17.6667C15.9706 22.6373 24.0295 22.6373 29.0001 17.6667L30.0001 16.6667"   stroke-linecap="round" stroke-width="2"/>
</svg>
