<svg  viewBox="0 0 52 52"  >
<path d="M35.2235 6H16.7765C10.8243 6 6 10.8251 6 16.7774V35.2226C6 41.1749 10.8251 46 16.7774 46H35.2226C41.1749 46 46 41.1749 46 35.2226V16.7774C46 10.8251 41.1757 6 35.2235 6Z"  stroke-width="2" stroke-miterlimit="10"/>
<path d="M26 34.6666C30.7865 34.6666 34.6667 30.7864 34.6667 25.9999C34.6667 21.2135 30.7865 17.3333 26 17.3333C21.2136 17.3333 17.3334 21.2135 17.3334 25.9999C17.3334 30.7864 21.2136 34.6666 26 34.6666Z" stroke-width="2" stroke-miterlimit="10"/>
<path d="M36.4 17.3334C37.3573 17.3334 38.1333 16.5573 38.1333 15.6C38.1333 14.6427 37.3573 13.8667 36.4 13.8667C35.4427 13.8667 34.6666 14.6427 34.6666 15.6C34.6666 16.5573 35.4427 17.3334 36.4 17.3334Z" stroke-width="2" />
</svg>
