<svg  viewBox="0 0 100 100" fill="none" xmlns="http://www.w3.org/2000/svg">
<path d="M60.5331 31.3863C61.7589 30.1714 61.7678 28.1927 60.5528 26.9669C59.3379 25.7411 57.3593 25.7323 56.1335 26.9472L48.6554 34.3588C45.8389 37.1503 43.5369 39.4317 41.9044 41.4645C40.2067 43.5784 38.9779 45.7239 38.6496 48.2994C38.5056 49.4287 38.5056 50.5715 38.6496 51.7008C38.9779 54.2762 40.2067 56.4218 41.9044 58.5357C43.5369 60.5685 45.8388 62.8499 48.6554 65.6413L56.1335 73.053C57.3593 74.2679 59.3379 74.2591 60.5528 73.0332C61.7678 71.8074 61.7589 69.8288 60.5331 68.6139L53.1874 61.3334C50.2062 58.3787 48.1612 56.3452 46.7774 54.6221C45.4333 52.9484 44.9721 51.8733 44.8494 50.9105C44.7724 50.3059 44.7724 49.6942 44.8494 49.0896C44.9721 48.1268 45.4333 47.0518 46.7774 45.378C48.1612 43.655 50.2062 41.6215 53.1874 38.6667L60.5331 31.3863Z" fill="#165019"/>
</svg>
