<svg  viewBox="0 0 40 40" fill="none" xmlns="http://www.w3.org/2000/svg">
<path d="M25 6.25001C26.5961 6.25001 27.2486 6.25389 27.7747 6.33722C30.8056 6.81727 33.1827 9.19437 33.6628 12.2253C33.7461 12.7514 33.75 13.4039 33.75 15V25C33.75 26.5961 33.7461 27.2486 33.6628 27.7748C33.1827 30.8057 30.8056 33.1828 27.7747 33.6628C27.2486 33.7461 26.5961 33.75 25 33.75H23.3333C21.7373 33.75 20.2678 33.2236 19.0841 32.3345C18.5321 31.9199 17.7485 32.0313 17.3339 32.5832C16.9193 33.1352 17.0306 33.9188 17.5826 34.3334C19.1844 35.5366 21.1774 36.25 23.3333 36.25L25.1348 36.25C26.5548 36.2501 27.4197 36.2502 28.1658 36.132C32.2665 35.4826 35.4825 32.2665 36.132 28.1658C36.2502 27.4197 36.2501 26.5547 36.25 25.1347V14.8653C36.2501 13.4453 36.2502 12.5803 36.132 11.8342C35.4825 7.73355 32.2665 4.51748 28.1658 3.868C27.4197 3.74983 26.5548 3.7499 25.1348 3.75001L23.3333 3.75001C21.1774 3.75001 19.1844 4.46345 17.5826 5.66661C17.0306 6.08123 16.9193 6.86481 17.3339 7.41679C17.7485 7.96878 18.5321 8.08014 19.0841 7.66553C20.2678 6.77639 21.7373 6.25001 23.3333 6.25001H25Z" fill="#FEFFD7"/>
<path d="M22.4433 12.3539C21.9023 11.925 21.1161 12.0158 20.6872 12.5567C20.2583 13.0977 20.3491 13.8839 20.89 14.3128L23.8283 16.6426C25.0017 17.5729 25.805 18.2123 26.3508 18.75L5 18.75C4.30964 18.75 3.75 19.3097 3.75 20C3.75 20.6904 4.30964 21.25 5 21.25L26.3508 21.25C25.805 21.7878 25.0017 22.4271 23.8283 23.3575L20.89 25.6872C20.3491 26.1161 20.2583 26.9024 20.6872 27.4433C21.1161 27.9842 21.9023 28.0751 22.4433 27.6462L25.4413 25.269C26.5621 24.3804 27.4869 23.6471 28.1458 22.9908C28.8219 22.3173 29.3824 21.5698 29.5346 20.6145C29.567 20.411 29.5833 20.2057 29.5833 20C29.5833 19.7944 29.567 19.5891 29.5346 19.3856C29.3824 18.4303 28.8219 17.6827 28.1458 17.0092C27.4869 16.3529 26.5621 15.6196 25.4413 14.731L22.4433 12.3539Z" fill="#FEFFD7"/>
</svg>
