<svg viewBox="0 0 40 40" fill="none" xmlns="http://www.w3.org/2000/svg">
<path d="M14.8653 3.75001C13.4453 3.74989 12.5803 3.74983 11.8342 3.868C7.73355 4.51748 4.51748 7.73355 3.868 11.8342C3.74983 12.5803 3.74989 13.4453 3.75001 14.8653L3.75001 25.1347C3.74989 26.5547 3.74983 27.4197 3.868 28.1658C4.51748 32.2665 7.73355 35.4826 11.8342 36.132C12.5803 36.2502 13.4453 36.2501 14.8653 36.25L16.6667 36.25C18.8227 36.25 20.8156 35.5366 22.4174 34.3334C22.9694 33.9188 23.0808 33.1352 22.6661 32.5832C22.2515 32.0313 21.4679 31.9199 20.916 32.3345C19.7322 33.2236 18.2627 33.75 16.6667 33.75H15C13.4039 33.75 12.7514 33.7461 12.2253 33.6628C9.19436 33.1828 6.81727 30.8057 6.33722 27.7748C6.25389 27.2486 6.25001 26.5961 6.25001 25L6.25001 15C6.25001 13.4039 6.25389 12.7514 6.33722 12.2253C6.81727 9.19436 9.19437 6.81727 12.2253 6.33722C12.7514 6.25389 13.4039 6.25001 15 6.25001H16.6667C18.2627 6.25001 19.7322 6.77639 20.916 7.66553C21.4679 8.08014 22.2515 7.96878 22.6661 7.41679C23.0808 6.86481 22.9694 6.08123 22.4174 5.66661C20.8156 4.46345 18.8227 3.75001 16.6667 3.75001L14.8653 3.75001Z" fill="#FEFFD7"/>
<path d="M29.11 12.3539C28.569 11.925 27.7828 12.0158 27.3539 12.5567C26.925 13.0977 27.0158 13.8839 27.5567 14.3128L30.495 16.6426C31.6684 17.5729 32.4717 18.2123 33.0175 18.75L11.6667 18.75C10.9763 18.75 10.4167 19.3097 10.4167 20C10.4167 20.6904 10.9763 21.25 11.6667 21.25L33.0175 21.25C32.4717 21.7878 31.6684 22.4271 30.495 23.3575L27.5567 25.6872C27.0158 26.1161 26.925 26.9023 27.3539 27.4433C27.7828 27.9842 28.569 28.0751 29.11 27.6462L32.1079 25.2691C33.2287 24.3804 34.1536 23.6472 34.8125 22.9908C35.4886 22.3173 36.0491 21.5698 36.2013 20.6145C36.2337 20.411 36.25 20.2057 36.25 20C36.25 19.7944 36.2337 19.5891 36.2013 19.3856C36.0491 18.4303 35.4886 17.6827 34.8125 17.0092C34.1536 16.3529 33.2288 15.6196 32.108 14.731L29.11 12.3539Z" fill="#FEFFD7"/>
</svg>
