<svg  viewBox="0 0 100 100" fill="none" xmlns="http://www.w3.org/2000/svg">
<path d="M43.8665 26.9472C42.6406 25.7323 40.662 25.7411 39.4471 26.9669C38.2321 28.1927 38.241 30.1714 39.4668 31.3863L46.8125 38.6667C49.7937 41.6215 51.8387 43.655 53.2225 45.378C54.5666 47.0518 55.0278 48.1268 55.1505 49.0896C55.2276 49.6942 55.2276 50.3059 55.1505 50.9105C55.0278 51.8733 54.5666 52.9484 53.2225 54.6221C51.8387 56.3452 49.7937 58.3787 46.8125 61.3334L39.4668 68.6139C38.241 69.8288 38.2321 71.8074 39.4471 73.0332C40.662 74.2591 42.6406 74.2679 43.8665 73.053L51.3445 65.6413C54.161 62.8499 56.463 60.5685 58.0956 58.5357C59.7932 56.4218 61.0221 54.2762 61.3503 51.7008C61.4943 50.5715 61.4943 49.4287 61.3503 48.2994C61.0221 45.7239 59.7932 43.5784 58.0956 41.4645C56.463 39.4317 54.1611 37.1502 51.3445 34.3588L43.8665 26.9472Z" fill="#165019"/>
</svg>
