<svg  viewBox="0 0 20 20" fill="none" xmlns="http://www.w3.org/2000/svg">
<g clip-path="url(#clip0_314_1527)">
<path d="M7.1241 3.75621C8.02931 0.970261 11.9707 0.970261 12.8759 3.75621C13.2807 5.00213 14.4418 5.84567 15.7518 5.84567C18.6811 5.84567 19.8991 9.59414 17.5292 11.316C16.4694 12.086 16.0259 13.4509 16.4307 14.6968C17.3359 17.4827 14.1473 19.7994 11.7774 18.0776C10.7176 17.3076 9.28243 17.3076 8.22259 18.0776C5.85272 19.7994 2.66408 17.4827 3.56929 14.6968C3.97412 13.4509 3.53064 12.086 2.4708 11.316C0.100927 9.59414 1.31888 5.84567 4.2482 5.84567C5.55823 5.84567 6.71928 5.00213 7.1241 3.75621Z" stroke="#165019" stroke-width="1.5"/>
</g>
<defs>
<clipPath id="clip0_314_1527">
<rect width="20" height="20" fill="white"/>
</clipPath>
</defs>
</svg>
