<svg  viewBox="0 0 40 40" >
<rect x="1" y="1" width="38" height="38" rx="7" />
<path d="M13.768 26.59C12.748 26.59 11.884 26.416 11.176 26.068C10.48 25.72 9.916 25.246 9.484 24.646C9.064 24.046 8.752 23.362 8.548 22.594C8.356 21.826 8.26 21.028 8.26 20.2V13.72H10.276V20.2C10.276 20.788 10.336 21.358 10.456 21.91C10.576 22.45 10.768 22.936 11.032 23.368C11.296 23.8 11.65 24.142 12.094 24.394C12.55 24.646 13.108 24.772 13.768 24.772C14.44 24.772 14.998 24.646 15.442 24.394C15.898 24.13 16.252 23.782 16.504 23.35C16.768 22.906 16.96 22.414 17.08 21.874C17.2 21.334 17.26 20.776 17.26 20.2V13.72H19.294V20.2C19.294 21.076 19.186 21.904 18.97 22.684C18.766 23.452 18.442 24.13 17.998 24.718C17.566 25.294 17.002 25.75 16.306 26.086C15.61 26.422 14.764 26.59 13.768 26.59ZM25.1378 13.72H27.0458L32.0138 26.5H29.8898L28.5398 23.026H23.6078L22.2758 26.5H20.1338L25.1378 13.72ZM28.1438 21.532L26.0918 15.934L23.9678 21.532H28.1438Z" />
</svg>
