<svg width="117" height="46" viewBox="0 0 117 46" fill="none" xmlns="http://www.w3.org/2000/svg">
<path d="M12 45.4C11.4 45.4 10.88 45.22 10.44 44.86C10.04 44.5 9.84 44.06 9.84 43.54C9.84 43.26 9.9 43 10.02 42.76C11.06 40.24 12.86 36.96 15.42 32.92L17.28 29.98C19.68 26.22 21.82 22.74 23.7 19.54C25.62 16.3 27.14 13.44 28.26 10.96C29.38 8.44 29.94 6.42 29.94 4.9C29.94 3.22 29.16 2.38 27.6 2.38C26.76 2.38 25.7 2.62 24.42 3.1C23.14 3.62 21.76 4.28 20.28 5.08C18.84 5.88 17.3 6.86 15.66 8.02C13.5 9.54 11.48 11.22 9.6 13.06C7.72 14.86 6.14 16.72 4.86 18.64C3.62 20.52 2.8 22.34 2.4 24.1C2.24 24.78 2.16 25.52 2.16 26.32C2.16 29.4 3.96 30.94 7.56 30.94C7.84 30.94 8.38 30.84 9.18 30.64C10.02 30.4 10.86 30.14 11.7 29.86C12.54 29.58 13.08 29.38 13.32 29.26C13.56 29.14 13.74 29.08 13.86 29.08C14.1 29.08 14.22 29.2 14.22 29.44C14.22 29.8 13.92 30.12 13.32 30.4C13 30.56 12.44 30.76 11.64 31C10.84 31.24 10.04 31.46 9.24 31.66C8.48 31.86 7.92 31.96 7.56 31.96C5.16 31.92 3.34 31.5 2.1 30.7C0.9 29.9 0.3 28.56 0.3 26.68C0.3 26.36 0.32 25.98 0.36 25.54C0.44 25.1 0.52 24.62 0.6 24.1C1.32 20.7 3.18 17.32 6.18 13.96C8.18 11.72 10.4 9.7 12.84 7.9C15.28 6.1 17.76 4.6 20.28 3.4C22.84 2.16 25.24 1.32 27.48 0.879999C28.2 0.759999 28.82 0.699998 29.34 0.699998C31.62 0.699998 32.76 1.8 32.76 4C32.76 4.76 32.64 5.6 32.4 6.52C32 8.2 31.4 9.86 30.6 11.5C29.84 13.1 28.88 14.8 27.72 16.6C26.6 18.4 25.28 20.46 23.76 22.78L20.34 28C20.3 28.08 20.3 28.16 20.34 28.24C20.42 28.32 20.5 28.32 20.58 28.24C21.22 27.56 22.14 26.66 23.34 25.54C24.54 24.38 26.06 23 27.9 21.4C29.66 19.84 31.44 18.34 33.24 16.9C35.04 15.46 36.74 14.18 38.34 13.06C39.98 11.9 41.44 11 42.72 10.36C44 9.68 45 9.34 45.72 9.34C47.28 9.34 48.06 10.14 48.06 11.74C48.06 12.9 47.6 14.36 46.68 16.12C45.8 17.72 44.92 19.34 44.04 20.98C43.2 22.58 42.38 24.18 41.58 25.78H41.52C38.64 31.46 37.02 35.22 36.66 37.06C36.58 37.5 36.52 37.9 36.48 38.26C36.44 38.58 36.42 38.86 36.42 39.1C36.42 39.82 36.52 40.4 36.72 40.84C36.96 41.28 37.34 41.5 37.86 41.5C38.38 41.5 39.12 41.28 40.08 40.84C41.04 40.44 41.96 39.9 42.84 39.22C43.64 38.62 44.18 38.32 44.46 38.32C44.62 38.32 44.7 38.38 44.7 38.5C44.7 38.62 44.64 38.78 44.52 38.98C44.24 39.46 43.76 39.94 43.08 40.42C41.8 41.34 40.7 42.04 39.78 42.52C38.9 43.04 38.16 43.3 37.56 43.3C36.44 43.3 35.52 42.94 34.8 42.22C34.12 41.5 33.78 40.48 33.78 39.16C33.78 39 33.8 38.76 33.84 38.44C33.88 38.12 33.94 37.72 34.02 37.24C34.3 35.92 34.86 34.24 35.7 32.2C36.58 30.16 37.66 27.84 38.94 25.24C40.26 22.64 41.68 19.88 43.2 16.96C43.84 15.72 44.16 14.82 44.16 14.26C44.16 13.62 43.84 13.3 43.2 13.3C42.64 13.3 41.88 13.52 40.92 13.96C40 14.36 39 14.88 37.92 15.52C36.88 16.16 35.86 16.82 34.86 17.5C33.86 18.18 33.02 18.78 32.34 19.3C30.66 20.62 28.86 22.22 26.94 24.1C25.06 25.98 23.22 27.96 21.42 30.04C19.66 32.12 18.1 34.2 16.74 36.28C16.7 36.36 16.66 36.52 16.62 36.76C16.58 36.96 16.54 37.22 16.5 37.54C16.46 38.38 16.36 39.12 16.2 39.76C16.08 40.4 15.82 41.08 15.42 41.8C15.14 42.32 14.9 42.76 14.7 43.12C14.5 43.52 14.32 43.82 14.16 44.02C13.6 44.94 12.88 45.4 12 45.4ZM55.8061 41.62C55.7261 41.62 55.6461 41.6 55.5661 41.56C55.4861 41.56 55.4061 41.54 55.3261 41.5C54.7661 41.22 54.4061 40.82 54.2461 40.3C54.0861 39.78 54.0461 39.12 54.1261 38.32C54.2061 38 54.2861 37.44 54.3661 36.64C54.4861 35.84 54.6261 35.2 54.7861 34.72L51.7261 37.66L50.0461 39.28C48.8861 40.44 47.9261 41.02 47.1661 41.02C46.8461 41.02 46.5861 40.9 46.3861 40.66C46.0261 40.22 45.8461 39.68 45.8461 39.04C45.8461 38.2 46.0661 37.3 46.5061 36.34C46.9461 35.38 47.4661 34.46 48.0661 33.58C48.6661 32.66 49.2061 31.9 49.6861 31.3C50.8861 29.82 52.0461 28.66 53.1661 27.82C54.3261 26.98 55.5261 26.56 56.7661 26.56C57.4461 26.56 58.1061 26.68 58.7461 26.92C59.4261 27.16 60.0461 27.56 60.6061 28.12L60.6661 28.18C60.6661 28.3 60.5661 28.42 60.3661 28.54C60.2861 28.62 60.2061 28.68 60.1261 28.72C60.0861 28.76 60.0461 28.8 60.0061 28.84C59.5261 29.32 58.9861 30.12 58.3861 31.24C57.7861 32.36 57.2661 33.54 56.8261 34.78C56.3861 35.98 56.1661 37.02 56.1661 37.9C56.1661 38.7 56.3661 39.24 56.7661 39.52C56.9661 39.64 57.1861 39.7 57.4261 39.7C57.9461 39.7 58.6661 39.38 59.5861 38.74C59.6261 38.7 59.7061 38.64 59.8261 38.56C59.9861 38.44 60.2061 38.28 60.4861 38.08C60.8061 37.84 61.0661 37.72 61.2661 37.72C61.4661 37.72 61.5661 37.8 61.5661 37.96C61.5661 38.2 61.4061 38.48 61.0861 38.8C60.8461 39 60.5661 39.22 60.2461 39.46C59.9661 39.7 59.6261 39.94 59.2261 40.18C58.6261 40.62 58.0061 40.96 57.3661 41.2C56.7261 41.48 56.2061 41.62 55.8061 41.62ZM49.0261 37.78C49.8661 37.78 51.4261 36.54 53.7061 34.06C54.3061 33.38 54.8461 32.74 55.3261 32.14C55.8061 31.5 56.2461 30.88 56.6461 30.28C57.3661 29.12 57.6061 28.32 57.3661 27.88C57.2461 27.64 57.0061 27.52 56.6461 27.52C56.2061 27.52 55.6061 27.76 54.8461 28.24C54.0861 28.68 53.3061 29.26 52.5061 29.98C51.7461 30.7 51.0461 31.42 50.4061 32.14C49.9661 32.7 49.5261 33.48 49.0861 34.48C48.6461 35.48 48.4261 36.3 48.4261 36.94C48.4261 37.5 48.6261 37.78 49.0261 37.78ZM76.9256 44.5C76.3256 44.5 75.8856 44.2 75.6056 43.6C75.5656 43.56 75.5456 43.44 75.5456 43.24C75.5456 43.04 75.6456 42.58 75.8456 41.86C75.9256 41.66 75.9856 41.46 76.0256 41.26C76.1056 41.06 76.1856 40.86 76.2656 40.66C76.3456 40.46 76.4256 40.24 76.5056 40C76.5856 39.72 76.6656 39.44 76.7456 39.16C76.9056 38.56 76.9856 38.06 76.9856 37.66C76.9856 37.1 76.8056 36.82 76.4456 36.82C76.3256 36.82 76.1056 36.92 75.7856 37.12C75.2656 37.52 74.7056 37.9 74.1056 38.26C73.5456 38.62 72.9456 38.96 72.3056 39.28L70.3856 40.3L69.1256 41.02C69.0056 41.06 68.7256 41.24 68.2856 41.56C67.8856 41.8 67.4656 41.92 67.0256 41.92C66.5056 41.92 65.9256 41.64 65.2856 41.08C64.8056 40.6 64.5656 40.1 64.5656 39.58C64.5656 39.14 64.7856 38.52 65.2256 37.72C65.5456 37.2 66.0856 36.56 66.8456 35.8C67.1656 35.48 67.4256 35.2 67.6256 34.96C67.8656 34.68 68.0656 34.46 68.2256 34.3C69.9056 32.06 72.5056 30.08 76.0256 28.36C77.0256 27.84 77.9256 27.58 78.7256 27.58C79.6056 27.58 80.3056 27.94 80.8256 28.66C81.0656 28.18 81.4456 27.5 81.9656 26.62C82.5256 25.7 83.1256 24.7 83.7656 23.62C84.4456 22.54 85.0856 21.52 85.6856 20.56C86.3256 19.6 86.8256 18.86 87.1856 18.34C88.2656 16.86 89.1456 15.74 89.8256 14.98C90.5056 14.26 91.1256 13.9 91.6856 13.9C91.8856 13.9 92.1456 14 92.4656 14.2C92.7456 14.44 92.8856 14.76 92.8856 15.16C92.8856 15.76 92.6256 16.46 92.1056 17.26C91.5856 18.06 90.8656 19.04 89.9456 20.2C89.8656 20.32 89.7456 20.48 89.5856 20.68C89.4256 20.84 89.2456 21.06 89.0456 21.34C88.6056 21.98 88.1456 22.66 87.6656 23.38C87.1856 24.06 86.6656 24.74 86.1056 25.42C85.3056 26.46 84.4656 27.6 83.5856 28.84C82.7056 30.04 81.8856 31.3 81.1256 32.62C80.4456 33.82 79.8656 35.06 79.3856 36.34C78.9056 37.58 78.5056 38.84 78.1856 40.12C78.1456 40.4 78.1056 40.62 78.0656 40.78C78.0656 40.98 78.0656 41.12 78.0656 41.2L78.1256 42.1C78.1656 42.22 78.1856 42.5 78.1856 42.94C78.1856 43.98 77.7656 44.5 76.9256 44.5ZM68.7056 39.34C69.1456 39.34 69.5456 39.26 69.9056 39.1C71.4256 38.58 72.8656 37.92 74.2256 37.12C75.5856 36.32 77.0256 35.24 78.5456 33.88C78.7456 33.32 78.9856 32.72 79.2656 32.08C79.5456 31.44 79.8456 30.74 80.1656 29.98C79.6856 28.98 78.9856 28.48 78.0656 28.48C77.4656 28.48 76.8256 28.68 76.1456 29.08C75.4656 29.48 74.7056 30.02 73.8656 30.7C73.0656 31.34 72.2456 32.06 71.4056 32.86C70.6056 33.66 69.9056 34.44 69.3056 35.2C68.7056 35.92 68.2856 36.52 68.0456 37C67.8056 37.4 67.6856 37.86 67.6856 38.38C67.6856 39.02 68.0256 39.34 68.7056 39.34ZM92.9006 26.86C92.3806 26.86 92.1206 26.74 92.1206 26.5C92.1206 26.3 92.2606 26.02 92.5406 25.66C92.8606 25.26 93.2206 24.92 93.6206 24.64C94.5006 24.08 95.1806 23.6 95.6606 23.2C96.1806 22.8 96.8006 22.12 97.5206 21.16C97.5606 21.24 97.5806 21.4 97.5806 21.64C97.5806 22.16 97.3606 22.8 96.9206 23.56C96.5206 24.28 96.0606 24.94 95.5406 25.54C95.0206 26.14 94.5606 26.52 94.1606 26.68C93.8006 26.8 93.3806 26.86 92.9006 26.86ZM87.5606 41.56C87.2406 41.56 86.9406 41.44 86.6606 41.2C86.3806 40.96 86.2406 40.64 86.2406 40.24C86.2406 39.4 86.8206 37.86 87.9806 35.62L88.6406 34.3C88.7206 34.22 88.8206 34.02 88.9406 33.7C89.1006 33.38 89.3206 32.96 89.6006 32.44C89.8806 31.88 90.1006 31.38 90.2606 30.94C90.4206 30.5 90.5406 30.08 90.6206 29.68C90.6206 29.64 90.7006 29.56 90.8606 29.44C91.0206 29.32 91.1806 29.22 91.3406 29.14L91.7006 29.08C92.0206 29.08 92.2806 29.14 92.4806 29.26C92.7206 29.38 92.8006 29.54 92.7206 29.74C92.4406 30.34 92.2006 30.86 92.0006 31.3C91.8006 31.74 91.6406 32.12 91.5206 32.44H91.4606C91.0206 33.44 90.6406 34.4 90.3206 35.32C90.0406 36.2 89.9206 37.04 89.9606 37.84L90.0206 39.46C89.9806 39.86 89.8406 40.2 89.6006 40.48C89.4406 40.6 89.2206 40.74 88.9406 40.9C88.6606 41.1 88.3006 41.3 87.8606 41.5C87.8206 41.54 87.7206 41.56 87.5606 41.56ZM96.5831 40.96C95.8631 40.96 95.5031 40.68 95.5031 40.12C95.5031 39.76 95.6231 39.3 95.8631 38.74C96.1431 38.18 96.4231 37.64 96.7031 37.12C97.4631 35.76 98.1631 34.44 98.8031 33.16C99.4431 31.88 100.063 30.52 100.663 29.08C100.943 28.44 101.363 28.12 101.923 28.12C102.523 28.12 102.703 28.48 102.463 29.2C102.223 29.8 101.983 30.34 101.743 30.82C100.623 33.1 100.063 34.64 100.063 35.44C100.063 35.8 100.183 36.02 100.423 36.1C100.983 35.66 101.403 35.34 101.683 35.14C101.963 34.9 102.123 34.76 102.163 34.72C102.723 34.28 103.343 33.78 104.023 33.22C104.743 32.62 105.523 31.94 106.363 31.18C107.683 29.98 108.783 29.38 109.663 29.38C110.743 29.38 111.203 30.36 111.043 32.32C111.003 33.08 111.003 33.82 111.043 34.54C111.083 34.7 111.103 34.94 111.103 35.26C111.103 35.54 111.103 35.88 111.103 36.28C111.103 36.68 111.343 36.88 111.823 36.88C112.383 36.88 112.903 36.72 113.383 36.4L114.703 35.5L116.023 34.66C116.103 34.62 116.243 34.6 116.443 34.6C116.683 34.6 116.683 34.78 116.443 35.14C113.923 38.26 111.843 39.82 110.203 39.82C109.883 39.82 109.563 39.76 109.243 39.64C108.963 39.52 108.763 39.18 108.643 38.62C108.523 38.02 108.443 37.38 108.403 36.7C108.403 36.02 108.403 35.5 108.403 35.14L108.463 33.16C108.463 32.32 108.243 31.9 107.803 31.9C106.763 31.9 104.203 34.04 100.123 38.32C99.8031 38.72 99.3031 39.26 98.6231 39.94C97.9431 40.62 97.2631 40.96 96.5831 40.96Z" fill="#165019"/>
</svg>
