<svg>
<defs>
<symbol id="icon-right" viewBox="0 0 32 32">
<path fill="#165019" style="fill: var(--color1, #165019)" d="M14.037 8.623c-0.392-0.389-1.025-0.386-1.414 0.006s-0.386 1.025 0.006 1.414l2.351 2.33c0.954 0.946 1.608 1.596 2.051 2.148 0.43 0.536 0.578 0.88 0.617 1.188 0.025 0.193 0.025 0.389 0 0.583-0.039 0.308-0.187 0.652-0.617 1.188-0.443 0.551-1.097 1.202-2.051 2.148l-2.351 2.33c-0.392 0.389-0.395 1.022-0.006 1.414s1.022 0.395 1.414 0.006l2.393-2.372c0.901-0.893 1.638-1.623 2.16-2.274 0.543-0.676 0.936-1.363 1.041-2.187 0.046-0.361 0.046-0.727 0-1.088-0.105-0.824-0.498-1.511-1.041-2.187-0.522-0.65-1.259-1.381-2.16-2.274l-2.393-2.372z"></path>
</symbol>
<symbol id="icon-left" viewBox="0 0 32 32">
<path fill="#165019" style="fill: var(--color1, #165019)" d="M19.371 10.044c0.392-0.389 0.395-1.022 0.006-1.414s-1.022-0.395-1.414-0.006l-2.393 2.372c-0.901 0.893-1.638 1.623-2.16 2.274-0.543 0.676-0.936 1.363-1.042 2.187-0.046 0.361-0.046 0.727 0 1.088 0.105 0.824 0.498 1.511 1.042 2.187 0.522 0.651 1.259 1.381 2.16 2.274l2.393 2.372c0.392 0.389 1.025 0.386 1.414-0.006s0.386-1.025-0.006-1.414l-2.351-2.33c-0.954-0.945-1.608-1.596-2.051-2.148-0.43-0.536-0.578-0.88-0.617-1.188-0.025-0.193-0.025-0.389 0-0.583 0.039-0.308 0.187-0.652 0.617-1.188 0.443-0.551 1.097-1.202 2.051-2.148l2.351-2.33z"></path>
</symbol>
<symbol id="icon-star" viewBox="0 0 32 32">
<path fill="none" stroke="#165019" style="stroke: var(--color1, #165019)" stroke-linejoin="miter" stroke-linecap="butt" stroke-miterlimit="4" stroke-width="2.4" d="M11.399 6.010c1.448-4.458 7.755-4.458 9.203 0 0.648 1.993 2.505 3.343 4.601 3.343 4.687 0 6.636 5.998 2.844 8.753-1.696 1.232-2.405 3.416-1.758 5.409 1.448 4.457-3.653 8.164-7.445 5.409-1.696-1.232-3.992-1.232-5.688 0-3.792 2.755-8.894-0.952-7.445-5.409 0.648-1.993-0.062-4.177-1.758-5.409-3.792-2.755-1.843-8.753 2.844-8.753 2.096 0 3.954-1.35 4.601-3.343z"></path>
</symbol>
<symbol id="icon-login" viewBox="0 0 32 32">
<path fill="#feffd7" style="fill: var(--color2, #feffd7)" d="M11.892 3c-1.136-0-1.828-0-2.425 0.094-3.281 0.52-5.853 3.092-6.373 6.373-0.095 0.597-0.095 1.289-0.094 2.425v8.216c-0 1.136-0 1.828 0.094 2.425 0.52 3.281 3.092 5.853 6.373 6.373 0.597 0.095 1.289 0.094 2.425 0.094h1.441c1.725 0 3.319-0.571 4.601-1.533 0.442-0.332 0.531-0.959 0.199-1.4s-0.959-0.531-1.4-0.199c-0.947 0.711-2.123 1.132-3.399 1.132h-1.333c-1.277 0-1.799-0.003-2.22-0.070-2.425-0.384-4.326-2.286-4.71-4.71-0.067-0.421-0.070-0.943-0.070-2.22v-8c0-1.277 0.003-1.799 0.070-2.22 0.384-2.425 2.286-4.326 4.71-4.71 0.421-0.067 0.943-0.070 2.22-0.070h1.333c1.277 0 2.452 0.421 3.399 1.132 0.442 0.332 1.068 0.243 1.4-0.199s0.243-1.068-0.199-1.4c-1.281-0.963-2.876-1.533-4.601-1.533h-1.441z"></path>
<path fill="#feffd7" style="fill: var(--color2, #feffd7)" d="M23.288 9.883c-0.433-0.343-1.062-0.27-1.405 0.162s-0.27 1.062 0.162 1.405l2.351 1.864c0.939 0.744 1.581 1.256 2.018 1.686h-17.081c-0.552 0-1 0.448-1 1s0.448 1 1 1h17.081c-0.437 0.43-1.079 0.942-2.018 1.686l-2.351 1.864c-0.433 0.343-0.505 0.972-0.162 1.405s0.972 0.505 1.405 0.162l2.398-1.902c0.897-0.711 1.637-1.298 2.164-1.823 0.541-0.539 0.989-1.137 1.111-1.901 0.026-0.163 0.039-0.327 0.039-0.492s-0.013-0.329-0.039-0.492c-0.122-0.764-0.57-1.362-1.111-1.901-0.527-0.525-1.267-1.112-2.164-1.823l-2.398-1.902z"></path>
</symbol>
<symbol id="icon-bag" viewBox="0 0 32 32">
<path  stroke="#feffd7" style="stroke: var(--color2, #feffd7)" stroke-linejoin="miter" stroke-linecap="round" stroke-miterlimit="4" stroke-width="1.6" d="M22.667 8c0-0.052-0.001-0.105-0.002-0.157-0.083-3.61-3.035-6.51-6.665-6.51-3.602 0-6.536 2.856-6.662 6.427-0.003 0.079-0.004 0.159-0.004 0.239M22.667 8h-13.333M22.667 8h1.745c2.781 0 4.171 0 4.966 0.888s0.641 2.27 0.334 5.034l-0.394 3.55c-0.627 5.642-0.94 8.463-2.839 10.162s-4.759 1.699-10.479 1.699c-5.721 0-8.581 0-10.479-1.699s-2.212-4.52-2.839-10.162l-0.394-3.55c-0.307-2.764-0.461-4.146 0.334-5.034s2.185-0.888 4.966-0.888h1.745M8 13.333l0.8 0.8c3.976 3.976 10.424 3.976 14.4 0l0.8-0.8"></path>
</symbol>
<symbol id="icon-heart" viewBox="0 0 32 32">
<path fill="none" stroke="#feffd7" style="stroke: var(--color2, #feffd7)" stroke-linejoin="miter" stroke-linecap="round" stroke-miterlimit="4" stroke-width="1.6" d="M27.082 5.948c-3.112-3.174-6.716-1.835-8.948-0.42-1.261 0.8-3.008 0.8-4.268 0-2.232-1.416-5.835-2.754-8.948 0.42-7.388 7.534 5.282 22.052 11.082 22.052s18.47-14.518 11.082-22.052z"></path>
</symbol>
<symbol id="icon-facebook" viewBox="0 0 32 32">
<path fill="none" stroke="#feffd7" style="stroke: var(--color2, #feffd7)" stroke-linejoin="miter" stroke-linecap="butt" stroke-miterlimit="4" stroke-width="1.2308" d="M7.995 16.79h-0.615v11.21h-3.135v-11.218h-3.629v-3.158h3.621v-3.836c0-1.752 0.515-3.030 1.334-3.868s2.005-1.303 3.485-1.303h0.003c0.879-0.004 1.758 0.034 2.634 0.114v2.742h-1.605c-0.965 0-1.711 0.239-2.181 0.82-0.446 0.55-0.526 1.272-0.526 1.929v3.411h4.106l-0.39 3.158h-3.101z"></path>
</symbol>
<symbol id="icon-instagram" viewBox="0 0 32 32">
<path fill="none" stroke="#feffd7" style="stroke: var(--color2, #feffd7)" stroke-linejoin="miter" stroke-linecap="butt" stroke-miterlimit="10" stroke-width="1.2308" d="M21.676 3.692h-11.352c-3.663 0-6.632 2.969-6.632 6.632v11.351c0 3.663 2.969 6.632 6.632 6.632h11.351c3.663 0 6.632-2.969 6.632-6.632v-11.351c0-3.663-2.969-6.632-6.632-6.632z"></path>
<path fill="none" stroke="#feffd7" style="stroke: var(--color2, #feffd7)" stroke-linejoin="miter" stroke-linecap="butt" stroke-miterlimit="10" stroke-width="1.2308" d="M16 21.333c2.946 0 5.333-2.388 5.333-5.333s-2.388-5.333-5.333-5.333c-2.945 0-5.333 2.388-5.333 5.333s2.388 5.333 5.333 5.333z"></path>
<path fill="#feffd7" style="fill: var(--color2, #feffd7)" d="M22.4 10.667c0.589 0 1.067-0.478 1.067-1.067s-0.478-1.067-1.067-1.067c-0.589 0-1.067 0.478-1.067 1.067s0.478 1.067 1.067 1.067z"></path>
</symbol>
<symbol id="en" viewBox="0 0 32 32">
<path fill="none" stroke="#feffd7" style="stroke: var(--color2, #feffd7)" stroke-linejoin="miter" stroke-linecap="butt" stroke-miterlimit="4" stroke-width="1.6" d="M6.4 0.8h19.2c3.093 0 5.6 2.507 5.6 5.6v19.2c0 3.093-2.507 5.6-5.6 5.6h-19.2c-3.093 0-5.6-2.507-5.6-5.6v-19.2c0-3.093 2.507-5.6 5.6-5.6z"></path>
<path fill="#feffd7" style="fill: var(--color2, #feffd7)" d="M14.165 19.774v1.426h-7.013v-10.224h6.883v1.426h-5.27v2.909h4.565v1.339h-4.565v3.125h5.4zM17.441 13.971v7.229h-1.613v-10.224h1.325l5.789 7.387v-7.373h1.627v10.21h-1.411l-5.717-7.229z"></path>
</symbol>
<symbol id="icon-ua" viewBox="0 0 32 32">
<path fill="none" stroke="#feffd7" style="stroke: var(--color2, #feffd7)" stroke-linejoin="miter" stroke-linecap="butt" stroke-miterlimit="4" stroke-width="1.6" d="M6.4 0.8h19.2c3.093 0 5.6 2.507 5.6 5.6v19.2c0 3.093-2.507 5.6-5.6 5.6h-19.2c-3.093 0-5.6-2.507-5.6-5.6v-19.2c0-3.093 2.507-5.6 5.6-5.6z"></path>
<path fill="#feffd7" style="fill: var(--color2, #feffd7)" d="M11.014 21.272c-0.816 0-1.507-0.139-2.074-0.418-0.557-0.278-1.008-0.658-1.354-1.138-0.336-0.48-0.586-1.027-0.749-1.642-0.154-0.614-0.23-1.253-0.23-1.915v-5.184h1.613v5.184c0 0.47 0.048 0.926 0.144 1.368 0.096 0.432 0.25 0.821 0.461 1.166s0.494 0.619 0.85 0.821c0.365 0.202 0.811 0.302 1.339 0.302 0.538 0 0.984-0.101 1.339-0.302 0.365-0.211 0.648-0.49 0.85-0.835 0.211-0.355 0.365-0.749 0.461-1.181s0.144-0.878 0.144-1.339v-5.184h1.627v5.184c0 0.701-0.086 1.363-0.259 1.987-0.163 0.614-0.422 1.157-0.778 1.627-0.346 0.461-0.797 0.826-1.354 1.094s-1.234 0.403-2.030 0.403zM20.11 10.976h1.526l3.974 10.224h-1.699l-1.080-2.779h-3.946l-1.066 2.779h-1.714l4.003-10.224zM22.515 17.226l-1.642-4.478-1.699 4.478h3.341z"></path>
</symbol>
</defs>
</svg>
